<svg xmlns="http://www.w3.org/2000/svg" xmlns:xlink="http://www.w3.org/1999/xlink" viewBox="10 170 500 150" fill="none">
  <g fill='#555555'>
    <path d="M95.22097,271.10312h-17.81432v20.69202h-27.40665v-85.64577h43.16547c19.64143,0 29.46214,10.55156 29.46214,31.65468c0,11.60215 -2.55795,20.18956 -7.67386,25.76225c-1.91847,2.10118 -4.56777,3.88261 -7.94793,5.3443c-3.38015,1.46169 -7.30844,2.19253 -11.78486,2.19253M77.40665,228.07468v21.10312h6.30353c3.2888,0 5.68688,-0.34258 7.19424,-1.02775c1.50737,-0.68517 2.26105,-2.26105 2.26105,-4.72765v-9.59233c0,-2.4666 -0.75368,-4.04248 -2.26105,-4.72765c-1.50737,-0.68517 -3.90545,-1.02775 -7.19424,-1.02775z" data-paper-data="{&quot;elementType&quot;:&quot;letter&quot;,&quot;baseline&quot;:62.5,&quot;baselineProportion&quot;:1,&quot;fontSize&quot;:100}">
    </path>
    <path d="M130.84961,223.27852h13.70332l7.53683,7.67386c5.38997,-4.9332 12.15028,-8.17632 20.28092,-9.72936l1.6444,25.89928c-2.19253,0.09136 -5.04739,0.63949 -8.56458,1.6444c-3.51719,1.00491 -5.91527,2.28389 -7.19424,3.83693v39.1915h-27.40665z" data-paper-data="{&quot;elementType&quot;:&quot;letter&quot;,&quot;baseline&quot;:51.5,&quot;baselineProportion&quot;:1,&quot;fontSize&quot;:100}">
    </path>
    <path d="M188.06098,284.87496c0,0 -1.42743,-1.49595 -4.28229,-4.48784c-2.85486,-2.99189 -4.28229,-10.60866 -4.28229,-22.85029c0,-12.24164 2.85486,-21.35435 8.56458,-27.33813c5.70972,-5.98378 14.95946,-8.97568 27.74923,-8.97568c12.78977,0 22.03951,2.99189 27.74923,8.97568c5.70972,5.98378 8.56458,15.09649 8.56458,27.33813c0,12.24164 -2.85486,21.35435 -8.56458,27.33813c-5.70972,5.98378 -14.95946,8.97568 -27.74923,8.97568c-12.78977,0 -22.03951,-2.99189 -27.74923,-8.97568M208.95855,246.98527v26.85851h4.24803c3.2888,0 5.68688,-0.34258 7.19424,-1.02775c1.50737,-0.68517 2.26105,-2.26105 2.26105,-4.72765v-26.85851h-4.24803c-3.2888,0 -5.68688,0.34258 -7.19424,1.02775c-1.50737,0.68517 -2.26105,2.26105 -2.26105,4.72765z" data-paper-data="{&quot;elementType&quot;:&quot;letter&quot;,&quot;baseline&quot;:51.5,&quot;baselineProportion&quot;:0.9716981132075472,&quot;fontSize&quot;:100}">
    </path>
    <path d="M301.45598,243.8335h-1.91847c-2.10118,0 -3.67706,0.09136 -4.72765,0.27407c-1.05059,0.18271 -2.03266,0.75368 -2.94621,1.71292c-0.91355,0.95923 -1.37033,2.39808 -1.37033,4.31655v41.6581h-27.40665v-68.51662h13.70332l6.1665,6.30353c5.57268,-5.57268 12.88112,-8.35903 21.92532,-8.35903c9.04419,0 15.57611,1.87279 19.59575,5.61836c5.57268,-3.74557 12.03609,-5.61836 19.3902,-5.61836c7.35412,0 13.08667,1.39317 17.19767,4.17951c4.111,2.78634 6.1665,6.64611 6.1665,11.57931v54.81329h-27.40665v-47.96163h-1.91847c-1.91847,0 -3.42583,0.09136 -4.5221,0.27407c-1.09627,0.18271 -2.10118,0.68517 -3.01473,1.50737c-0.91355,0.8222 -1.41601,2.0555 -1.50737,3.6999v42.4803h-27.40665z" data-paper-data="{&quot;elementType&quot;:&quot;letter&quot;,&quot;baseline&quot;:51.5,&quot;baselineProportion&quot;:1,&quot;fontSize&quot;:100}">
    </path>
    <path d="M385.93696,284.87496c0,0 -1.42743,-1.49595 -4.28229,-4.48784c-2.85486,-2.99189 -4.28229,-10.60866 -4.28229,-22.85029c0,-12.24164 2.85486,-21.35435 8.56458,-27.33813c5.70972,-5.98378 14.95946,-8.97568 27.74923,-8.97568c12.78977,0 22.03951,2.99189 27.74923,8.97568c5.70972,5.98378 8.56458,15.09649 8.56458,27.33813c0,12.24164 -2.85486,21.35435 -8.56458,27.33813c-5.70972,5.98378 -14.95946,8.97568 -27.74923,8.97568c-12.78977,0 -22.03951,-2.99189 -27.74923,-8.97568M406.83453,246.98527v26.85851h4.24803c3.2888,0 5.68688,-0.34258 7.19424,-1.02775c1.50737,-0.68517 2.26105,-2.26105 2.26105,-4.72765v-26.85851h-4.24803c-3.2888,0 -5.68688,0.34258 -7.19424,1.02775c-1.50737,0.68517 -2.26105,2.26105 -2.26105,4.72765z" >
    </path>
  </g>
</svg>